mtllib 名称未設定.mtl
g PROCEDURAL_MESHES_CUBE#0

# Vertex Positions:
v 10 20 -10
v 10 20 10
v 10 20 -10
v 10 20 -10
v -10 20 10
v -10 0 10
v 10 0 10
v -10 0 10
v -10 20 10
v 10 0 10
v -10 20 -10
v 10 20 10
v 10 0 10
v 10 0 10
v 10 0 -10
v 10 0 -10
v -10 20 10
v -10 0 -10
v -10 20 -10
v -10 20 10
v 10 20 10
v 10 20 -10
v -10 0 10
v 10 20 -10
v -10 20 -10
v 10 20 10
v -10 0 -10
v -10 0 -10
v -10 0 -10
v -10 0 -10
v 10 0 -10
v -10 0 10
v 10 0 -10
v -10 20 10
v -10 20 -10
v 10 0 10

# Vertex Texture Coordinates:
vt 0.5 0.75 
vt 0.5 0.5 
vt 0.75 0.5 
vt 0.75 0.5 
vt 0.25 0.5 
vt 0.25 0.25 
vt 0.5 0.25 
vt 0.25 0.25 
vt 0.25 0.5 
vt 0.5 0.25 
vt 1 0.5 
vt 0.5 0.5 
vt 0.5 0.25 
vt 0.5 0.25 
vt 0.75 0.25 
vt 0.75 0.25 
vt 0.25 0.5 
vt 0.25 0 
vt 1 0.5 
vt 0.25 0.5 
vt 0.5 0.5 
vt 0.5 0.75 
vt 0.25 0.25 
vt 0.75 0.5 
vt 0 0.5 
vt 0.5 0.5 
vt 0 0.25 
vt 0.25 0 
vt 0 0.25 
vt 1 0.25 
vt 0.5 0 
vt 0.25 0.25 
vt 0.75 0.25 
vt 0.25 0.5 
vt 0.25 0.75 
vt 0.5 0.25 

# Vertex Surface Normals:
vn 0 1 0
vn 0 0 1
vn -0 0 -1
vn 1 0 0
vn 0 1 0
vn -1 0 0
vn 0 -1 0
vn 0 -1 0
vn -1 0 0
vn 1 0 0
vn -0 0 -1
vn 0 1 0
vn 1 0 0
vn 0 0 1
vn -0 0 -1
vn -0 0 -1
vn -1 0 0
vn 0 -1 0
vn -0 0 -1
vn 0 1 0
vn 0 0 1
vn 0 1 0
vn 0 0 1
vn 1 0 0
vn -1 0 0
vn 1 0 0
vn -1 0 0
vn 0 -1 0
vn -1 0 0
vn -0 0 -1
vn 0 -1 0
vn 0 0 1
vn 1 0 0
vn 0 0 1
vn 0 1 0
vn 0 -1 0

# Faces:
usemtl ゼラチン
f 32/32/32 14/14/14 21/21/21
f 23/23/23 2/2/2 34/34/34
f 16/16/16 30/30/30 19/19/19
f 15/15/15 11/11/11 3/3/3
f 10/10/10 33/33/33 4/4/4
f 13/13/13 24/24/24 26/26/26
f 29/29/29 6/6/6 17/17/17
f 27/27/27 9/9/9 25/25/25
f 20/20/20 12/12/12 22/22/22
f 5/5/5 1/1/1 35/35/35
f 18/18/18 31/31/31 36/36/36
f 28/28/28 7/7/7 8/8/8
