mtllib H.mtl
g TextMesh#0

# Vertex Positions:
v 8.63134 2.58984 4.74736
v 8.63134 2.58984 3.74736
v 7.3999 2.58984 4.74736
v 2.57568 6.98242 3.74736
v 1.34423 2.58984 4.74736
v 2.57568 8.08691 4.74736
v 1.34423 11.89551 3.74736
v 8.63134 11.89551 3.74736
v 1.34423 11.89551 3.74736
v 2.57568 2.58984 3.74736
v 8.63134 11.89551 4.74736
v 2.57568 8.08691 4.74736
v 2.57568 2.58984 4.74736
v 1.34423 11.89551 4.74736
v 2.57568 11.89551 3.74736
v 8.63134 2.58984 3.74736
v 1.34423 2.58984 3.74736
v 1.34423 11.89551 4.74736
v 2.57568 11.89551 4.74736
v 2.57568 6.98242 4.74736
v 7.3999 2.58984 3.74736
v 2.57568 6.98242 4.74736
v 7.3999 6.98242 3.74736
v 8.63134 11.89551 3.74736
v 7.3999 8.08691 3.74736
v 2.57568 6.98242 3.74736
v 2.57568 2.58984 3.74736
v 7.3999 8.08691 4.74736
v 2.57568 11.89551 3.74736
v 2.57568 8.08691 4.74736
v 7.3999 6.98242 4.74736
v 1.34423 11.89551 4.74736
v 2.57568 6.98242 4.74736
v 2.57568 11.89551 4.74736
v 2.57568 6.98242 3.74736
v 7.3999 2.58984 3.74736
v 7.3999 6.98242 3.74736
v 8.63134 11.89551 3.74736
v 7.3999 2.58984 3.74736
v 7.3999 6.98242 4.74736
v 8.63134 11.89551 4.74736
v 7.3999 2.58984 3.74736
v 2.57568 6.98242 3.74736
v 2.57568 6.98242 3.74736
v 7.3999 8.08691 4.74736
v 1.34423 2.58984 3.74736
v 7.3999 6.98242 3.74736
v 1.34423 2.58984 3.74736
v 1.34423 2.58984 3.74736
v 7.3999 11.89551 4.74736
v 7.3999 8.08691 4.74736
v 8.63134 2.58984 4.74736
v 7.3999 2.58984 4.74736
v 2.57568 8.08691 4.74736
v 8.63134 2.58984 4.74736
v 7.3999 11.89551 3.74736
v 7.3999 8.08691 3.74736
v 7.3999 8.08691 4.74736
v 7.3999 8.08691 4.74736
v 7.3999 6.98242 3.74736
v 8.63134 11.89551 3.74736
v 2.57568 2.58984 3.74736
v 7.3999 6.98242 3.74736
v 2.57568 6.98242 4.74736
v 2.57568 8.08691 3.74736
v 7.3999 11.89551 3.74736
v 8.63134 2.58984 4.74736
v 2.57568 11.89551 4.74736
v 7.3999 11.89551 3.74736
v 7.3999 6.98242 3.74736
v 1.34423 2.58984 4.74736
v 8.63134 2.58984 3.74736
v 7.3999 2.58984 4.74736
v 1.34423 11.89551 3.74736
v 1.34423 2.58984 4.74736
v 7.3999 6.98242 3.74736
v 1.34423 2.58984 4.74736
v 7.3999 11.89551 4.74736
v 2.57568 11.89551 3.74736
v 2.57568 6.98242 4.74736
v 8.63134 2.58984 3.74736
v 2.57568 8.08691 4.74736
v 1.34423 11.89551 4.74736
v 7.3999 6.98242 4.74736
v 7.3999 6.98242 4.74736
v 7.3999 6.98242 4.74736
v 2.57568 2.58984 3.74736
v 2.57568 8.08691 4.74736
v 8.63134 11.89551 4.74736
v 2.57568 2.58984 4.74736
v 1.34423 11.89551 3.74736
v 7.3999 2.58984 4.74736
v 2.57568 6.98242 4.74736
v 7.3999 11.89551 4.74736
v 7.3999 6.98242 4.74736
v 7.3999 8.08691 3.74736
v 8.63134 2.58984 4.74736
v 7.3999 11.89551 3.74736
v 2.57568 11.89551 4.74736
v 2.57568 8.08691 3.74736
v 2.57568 8.08691 3.74736
v 2.57568 11.89551 3.74736
v 1.34423 11.89551 3.74736
v 1.34423 11.89551 4.74736
v 8.63134 11.89551 3.74736
v 7.3999 6.98242 4.74736
v 2.57568 6.98242 4.74736
v 2.57568 8.08691 3.74736
v 1.34423 2.58984 4.74736
v 2.57568 8.08691 4.74736
v 7.3999 6.98242 4.74736
v 2.57568 6.98242 3.74736
v 7.3999 8.08691 4.74736
v 2.57568 8.08691 3.74736
v 2.57568 6.98242 3.74736
v 8.63134 11.89551 4.74736
v 2.57568 2.58984 4.74736
v 1.34423 2.58984 3.74736
v 7.3999 8.08691 3.74736
v 2.57568 8.08691 3.74736
v 8.63134 11.89551 3.74736
v 7.3999 6.98242 3.74736
v 7.3999 8.08691 3.74736
v 7.3999 8.08691 3.74736
v 1.34423 11.89551 3.74736
v 8.63134 11.89551 4.74736
v 2.57568 2.58984 4.74736
v 8.63134 11.89551 4.74736
v 2.57568 8.08691 3.74736
v 1.34423 11.89551 4.74736
v 8.63134 2.58984 3.74736
v 7.3999 11.89551 4.74736

# Vertex Texture Coordinates:
vt 0.00006 0.70724 
vt 0.50022 0 
vt 0.30133 0.98318 
vt 0.91554 0.30126 
vt 0.63822 0.84521 
vt 0.33091 0.77623 
vt 1 0.63822 
vt 0.63877 0.63866 
vt 0.67658 0.70764 
vt 0.00002 0.84561 
vt 0.63828 0.70724 
vt 0.08449 0.37701 
vt 0.08449 0 
vt 0 0.84521 
vt 0.59212 0.70764 
vt 0.50022 0 
vt 1 0 
vt 0.00003 0.63822 
vt 0.59212 0.77623 
vt 0.08449 0.30126 
vt 0.58468 0 
vt 0.08449 0.30126 
vt 0.58468 0.30126 
vt 0.50022 0.63822 
vt 0.98443 0.63866 
vt 0.30128 0.84561 
vt 0.72268 0.77663 
vt 0.00005 0.77623 
vt 0.59212 0.70764 
vt 0.08449 0.37701 
vt 0.00007 0.98318 
vt 0.67658 0.77623 
vt 0.30128 0.9142 
vt 0.59212 0.77623 
vt 0.91554 0.30126 
vt 0.30133 0.9146 
vt 0.58468 0.30126 
vt 0.50022 0.63822 
vt 0.30133 0.9146 
vt 0.41535 0.30126 
vt 0.49981 0.63822 
vt 0.30133 0.9146 
vt 0.91554 0.30126 
vt 0.30128 0.84561 
vt 0.41535 0.37701 
vt 0.63822 0.77663 
vt 0.58468 0.30126 
vt 0.63822 0.77663 
vt 1 0 
vt 0.41535 0.63822 
vt 0.00005 0.77623 
vt 0.38579 0.98318 
vt 0.30133 0.98318 
vt 0.33091 0.77623 
vt 0.49981 0 
vt 0.58468 0.63822 
vt 0.58468 0.37701 
vt 0.98443 0.70724 
vt 0.41535 0.37701 
vt 0.00007 0.9146 
vt 0.63828 0.63866 
vt 0.72268 0.77663 
vt 0.63214 0.84561 
vt 0.30128 0.9142 
vt 0.33091 0.70764 
vt 0.72322 0.63866 
vt 0.00006 0.70724 
vt 0.59212 0.77623 
vt 0.72322 0.63866 
vt 0.63214 0.84561 
vt 0.00003 0 
vt 0.00006 0.63866 
vt 0.41535 0 
vt 0.67658 0.70764 
vt 0.00003 0 
vt 0.58468 0.30126 
vt 0.63822 0.84521 
vt 0.72322 0.70724 
vt 0.59212 0.70764 
vt 0.30128 0.9142 
vt 0.38579 0.9146 
vt 0.08449 0.37701 
vt 0 0.84521 
vt 0.41535 0.30126 
vt 0.63214 0.9142 
vt 0.41535 0.30126 
vt 0.91554 0 
vt 0.08449 0.37701 
vt 0.49981 0.63822 
vt 0.00002 0.9142 
vt 0 0.77663 
vt 0.30133 0.98318 
vt 0.08449 0.30126 
vt 0.72322 0.70724 
vt 0.00007 0.98318 
vt 0.00005 0.70764 
vt 0.49981 0 
vt 0.72322 0.63866 
vt 0.08449 0.63822 
vt 0.91554 0.37701 
vt 0.33091 0.70764 
vt 0.91554 0.63822 
vt 1 0.63822 
vt 0.00003 0.63822 
vt 0.50022 0.63822 
vt 0.41535 0.30126 
vt 0.08449 0.30126 
vt 0.91554 0.37701 
vt 0.63822 0.84521 
vt 0.33091 0.77623 
vt 0.41535 0.30126 
vt 0.91554 0.30126 
vt 0.41535 0.37701 
vt 0.91554 0.37701 
vt 0.30128 0.84561 
vt 0.49981 0.63822 
vt 0.72268 0.84521 
vt 0.63822 0.77663 
vt 0.58468 0.37701 
vt 0.33091 0.70764 
vt 0.63828 0.63866 
vt 0.58468 0.30126 
vt 0.58468 0.37701 
vt 0.98443 0.63866 
vt 1 0.63822 
vt 0.63877 0.70724 
vt 0.00002 0.9142 
vt 0.63877 0.70724 
vt 0.91554 0.37701 
vt 0.00003 0.63822 
vt 0.38579 0.9146 
vt 0.72322 0.70724 

# Vertex Surface Normals:
vn 1 0 0
vn 0 0 -1
vn 0 -1 0
vn 0 0 -1
vn -1 0 0
vn 1 0 0
vn 0 0 -1
vn 0 1 0
vn 0 1 0
vn 1 0 0
vn 1 0 0
vn 0 0 1
vn 0 0 1
vn -1 0 0
vn 0 1 0
vn 0 0 -1
vn 0 0 -1
vn 0 0 1
vn 1 0 0
vn 0 0 1
vn 0 0 -1
vn 0 0 1
vn 0 0 -1
vn 0 0 -1
vn -1 0 0
vn 0 -1 0
vn 0 -1 0
vn 0 1 0
vn 1 0 0
vn 0 0 1
vn -1 0 0
vn 0 1 0
vn 0 -1 0
vn 0 1 0
vn 0 0 -1
vn -1 0 0
vn 0 0 -1
vn 0 0 -1
vn 0 -1 0
vn 0 0 1
vn 0 0 1
vn -1 0 0
vn 0 0 -1
vn 1 0 0
vn 0 0 1
vn -1 0 0
vn 0 0 -1
vn 0 -1 0
vn 0 0 -1
vn 0 0 1
vn 0 1 0
vn 0 -1 0
vn -1 0 0
vn 0 1 0
vn 0 0 1
vn 0 0 -1
vn 0 0 -1
vn -1 0 0
vn 0 0 1
vn -1 0 0
vn 1 0 0
vn 0 -1 0
vn 0 -1 0
vn 0 -1 0
vn 1 0 0
vn 0 1 0
vn 1 0 0
vn 0 1 0
vn -1 0 0
vn 0 -1 0
vn 0 0 1
vn 1 0 0
vn 0 0 1
vn 0 1 0
vn 0 0 1
vn 0 0 -1
vn 0 -1 0
vn 0 1 0
vn 1 0 0
vn 1 0 0
vn 0 -1 0
vn 0 0 1
vn -1 0 0
vn 0 0 1
vn 0 -1 0
vn 0 0 1
vn 0 0 -1
vn 0 0 1
vn 0 0 1
vn 1 0 0
vn -1 0 0
vn 0 -1 0
vn 0 0 1
vn -1 0 0
vn -1 0 0
vn 0 1 0
vn 0 0 1
vn 0 1 0
vn 0 0 1
vn 0 0 -1
vn 0 1 0
vn 0 0 -1
vn 0 0 -1
vn 0 0 1
vn 0 0 -1
vn 0 0 1
vn 0 0 1
vn 0 0 -1
vn 0 -1 0
vn 1 0 0
vn 0 0 1
vn 0 0 -1
vn 0 0 1
vn 0 0 -1
vn 1 0 0
vn 0 0 1
vn 0 -1 0
vn -1 0 0
vn 0 0 -1
vn 0 1 0
vn 1 0 0
vn 0 0 -1
vn 0 0 -1
vn -1 0 0
vn 0 0 -1
vn 0 1 0
vn 1 0 0
vn 0 1 0
vn 0 0 -1
vn 0 0 1
vn 0 -1 0
vn -1 0 0

# Faces:
usemtl 初期設定マテリアル 2
f 75/75/75 13/13/13 22/22/22
f 71/71/71 93/93/93 130/130/130
f 104/104/104 12/12/12 99/99/99
f 30/30/30 18/18/18 20/20/20
f 107/107/107 84/84/84 88/88/88
f 73/73/73 97/97/97 40/40/40
f 111/111/111 55/55/55 116/116/116
f 45/45/45 41/41/41 50/50/50
f 89/89/89 59/59/59 86/86/86
f 106/106/106 113/113/113 82/82/82
usemtl 初期設定マテリアル 4
f 87/87/87 49/49/49 35/35/35
f 112/112/112 17/17/17 103/103/103
f 100/100/100 7/7/7 102/102/102
f 125/125/125 114/114/114 43/43/43
f 76/76/76 4/4/4 108/108/108
f 2/2/2 21/21/21 122/122/122
f 16/16/16 23/23/23 24/24/24
f 105/105/105 123/123/123 56/56/56
f 57/57/57 38/38/38 37/37/37
f 119/119/119 47/47/47 129/129/129
usemtl 初期設定マテリアル 2
f 72/72/72 121/121/121 1/1/1
f 8/8/8 98/98/98 126/126/126
f 69/69/69 25/25/25 132/132/132
f 96/96/96 120/120/120 28/28/28
f 65/65/65 29/29/29 6/6/6
f 15/15/15 9/9/9 34/34/34
f 91/91/91 118/118/118 83/83/83
f 48/48/48 27/27/27 77/77/77
f 10/10/10 115/115/115 127/127/127
f 26/26/26 63/63/63 33/33/33
f 60/60/60 42/42/42 31/31/31
f 39/39/39 81/81/81 92/92/92
f 67/67/67 61/61/61 11/11/11
f 128/128/128 66/66/66 78/78/78
f 94/94/94 124/124/124 58/58/58
f 51/51/51 101/101/101 54/54/54
f 110/110/110 79/79/79 19/19/19
f 68/68/68 74/74/74 32/32/32
f 14/14/14 46/46/46 5/5/5
f 109/109/109 62/62/62 117/117/117
f 90/90/90 44/44/44 80/80/80
f 64/64/64 70/70/70 85/85/85
f 95/95/95 36/36/36 53/53/53
f 3/3/3 131/131/131 52/52/52
